<svg xmlns="http://www.w3.org/2000/svg" xmlns:xlink="http://www.w3.org/1999/xlink" width="1000" zoomAndPan="magnify" viewBox="0 0 750 749.999995" height="1000" preserveAspectRatio="xMidYMid meet" version="1.0"><defs><clipPath id="e16f3b9fb3"><path d="M 75 85.664062 L 666.1875 85.664062 L 666.1875 676.851562 L 75 676.851562 Z M 75 85.664062 " clip-rule="nonzero"/></clipPath><clipPath id="cd276ba19e"><path d="M 370.59375 85.664062 C 207.34375 85.664062 75 218.007812 75 381.257812 C 75 544.511719 207.34375 676.851562 370.59375 676.851562 C 533.84375 676.851562 666.1875 544.511719 666.1875 381.257812 C 666.1875 218.007812 533.84375 85.664062 370.59375 85.664062 " clip-rule="nonzero"/></clipPath><clipPath id="3dbc3ca9e3"><path d="M 75 85.664062 L 666 85.664062 L 666 676.664062 L 75 676.664062 Z M 75 85.664062 " clip-rule="nonzero"/></clipPath><clipPath id="ce2d42e06b"><path d="M 370.5 85.664062 C 207.300781 85.664062 75 217.964844 75 381.164062 C 75 544.367188 207.300781 676.664062 370.5 676.664062 C 533.699219 676.664062 666 544.367188 666 381.164062 C 666 217.964844 533.699219 85.664062 370.5 85.664062 " clip-rule="nonzero"/></clipPath><clipPath id="dad61ea646"><path d="M 117 53 L 193 53 L 193 174 L 117 174 Z M 117 53 " clip-rule="nonzero"/></clipPath><clipPath id="347b3f27ab"><path d="M 106.566406 67.875 L 173.785156 42.882812 L 217.519531 160.511719 L 150.304688 185.503906 Z M 106.566406 67.875 " clip-rule="nonzero"/></clipPath><clipPath id="7b98fa4d5e"><path d="M 192.398438 158.355469 L 185.53125 84.117188 C 184.558594 73.609375 178.75 64.152344 169.816406 58.539062 C 160.882812 52.921875 149.84375 51.785156 139.953125 55.460938 C 130.0625 59.136719 122.449219 67.210938 119.355469 77.300781 C 116.261719 87.386719 118.042969 98.339844 124.171875 106.929688 L 167.472656 167.625 C 171.089844 172.691406 177.652344 174.703125 183.484375 172.53125 C 189.316406 170.363281 192.96875 164.554688 192.398438 158.355469 " clip-rule="nonzero"/></clipPath><clipPath id="f987e94469"><path d="M 545 57 L 626 57 L 626 170 L 545 170 Z M 545 57 " clip-rule="nonzero"/></clipPath><clipPath id="bbf06967d8"><path d="M 568.921875 45.011719 L 639.492188 77.246094 L 590.261719 185.023438 L 519.695312 152.789062 Z M 568.921875 45.011719 " clip-rule="nonzero"/></clipPath><clipPath id="49b62b26bb"><path d="M 574.164062 164.320312 L 615.703125 119.171875 C 623.652344 110.535156 626.984375 98.609375 624.660156 87.101562 C 622.335938 75.59375 614.640625 65.894531 603.960938 61.019531 C 593.28125 56.140625 580.914062 56.671875 570.691406 62.449219 C 560.472656 68.230469 553.640625 78.554688 552.316406 90.21875 L 545.390625 151.175781 C 544.574219 158.332031 548.457031 165.195312 555.007812 168.1875 C 561.558594 171.179688 569.289062 169.617188 574.164062 164.320312 " clip-rule="nonzero"/></clipPath><clipPath id="b03fefbff5"><path d="M 79.710938 203.066406 L 670.941406 203.066406 L 670.941406 706 L 79.710938 706 Z M 79.710938 203.066406 " clip-rule="nonzero"/></clipPath><clipPath id="b1cb345aa6"><path d="M 375.304688 203.066406 C 212.054688 203.066406 79.710938 315.613281 79.710938 454.441406 C 79.710938 593.269531 212.054688 705.816406 375.304688 705.816406 C 538.558594 705.816406 670.898438 593.269531 670.898438 454.441406 C 670.898438 315.613281 538.558594 203.066406 375.304688 203.066406 " clip-rule="nonzero"/></clipPath><clipPath id="24e3d1d3ba"><path d="M 79.710938 203.066406 L 670.710938 203.066406 L 670.710938 705.566406 L 79.710938 705.566406 Z M 79.710938 203.066406 " clip-rule="nonzero"/></clipPath><clipPath id="90922b4749"><path d="M 375.210938 203.066406 C 212.011719 203.066406 79.710938 315.554688 79.710938 454.316406 C 79.710938 593.078125 212.011719 705.566406 375.210938 705.566406 C 538.414062 705.566406 670.710938 593.078125 670.710938 454.316406 C 670.710938 315.554688 538.414062 203.066406 375.210938 203.066406 " clip-rule="nonzero"/></clipPath><clipPath id="09f102304c"><path d="M 270.292969 533.644531 L 480.292969 533.644531 L 480.292969 638.644531 L 270.292969 638.644531 Z M 270.292969 533.644531 " clip-rule="nonzero"/></clipPath><clipPath id="34e9a6044e"><path d="M 192 362 L 285 362 L 285 481 L 192 481 Z M 192 362 " clip-rule="nonzero"/></clipPath><clipPath id="f5dfe99af2"><path d="M 282.359375 361.554688 L 285.984375 479.058594 L 194.832031 481.871094 L 191.207031 364.367188 Z M 282.359375 361.554688 " clip-rule="nonzero"/></clipPath><clipPath id="d99827850d"><path d="M 284.566406 433.105469 C 285.34375 458.277344 265.566406 479.3125 240.394531 480.089844 C 215.222656 480.867188 194.191406 461.089844 193.414062 435.917969 L 192.613281 409.945312 C 191.835938 384.773438 211.613281 363.738281 236.78125 362.960938 C 261.953125 362.1875 282.988281 381.960938 283.765625 407.132812 L 284.566406 433.105469 " clip-rule="nonzero"/></clipPath><clipPath id="3da4dd15b6"><path d="M 472 365 L 567 365 L 567 485 L 472 485 Z M 472 365 " clip-rule="nonzero"/></clipPath><clipPath id="2e81dd3ba4"><path d="M 569.257812 368.066406 L 562.527344 487.09375 L 470.191406 481.875 L 476.917969 362.847656 Z M 569.257812 368.066406 " clip-rule="nonzero"/></clipPath><clipPath id="3db3b4212c"><path d="M 565.160156 440.546875 C 563.71875 466.046875 541.878906 485.546875 516.382812 484.105469 C 490.882812 482.664062 471.378906 460.828125 472.820312 435.328125 L 474.308594 409.015625 C 475.75 383.519531 497.589844 364.015625 523.085938 365.457031 C 548.585938 366.898438 568.085938 388.738281 566.644531 414.234375 L 565.160156 440.546875 " clip-rule="nonzero"/></clipPath><clipPath id="4460651cd8"><path d="M 321.671875 573.636719 L 429 573.636719 L 429 631.253906 L 321.671875 631.253906 Z M 321.671875 573.636719 " clip-rule="nonzero"/></clipPath><clipPath id="67f040a26c"><path d="M 375.304688 573.636719 C 345.683594 573.636719 321.671875 586.515625 321.671875 602.398438 C 321.671875 618.28125 345.683594 631.160156 375.304688 631.160156 C 404.929688 631.160156 428.941406 618.28125 428.941406 602.398438 C 428.941406 586.515625 404.929688 573.636719 375.304688 573.636719 " clip-rule="nonzero"/></clipPath></defs><g clip-path="url(#e16f3b9fb3)"><g clip-path="url(#cd276ba19e)"><path fill="#38b6ff" d="M 75 85.664062 L 666.1875 85.664062 L 666.1875 676.851562 L 75 676.851562 Z M 75 85.664062 " fill-opacity="1" fill-rule="nonzero"/></g></g><g clip-path="url(#3dbc3ca9e3)"><g clip-path="url(#ce2d42e06b)"><path stroke-linecap="butt" transform="matrix(0.749762, 0, 0, 0.749762, 74.999999, 85.665719)" fill="none" stroke-linejoin="miter" d="M 394.125018 -0.0022094 C 176.457015 -0.0022094 0.00000134043 176.454805 0.00000134043 394.122807 C 0.00000134043 611.79602 176.457015 788.247824 394.125018 788.247824 C 611.793021 788.247824 788.250035 611.79602 788.250035 394.122807 C 788.250035 176.454805 611.793021 -0.0022094 394.125018 -0.0022094 " stroke="#000000" stroke-width="42" stroke-opacity="1" stroke-miterlimit="4"/></g></g><g clip-path="url(#dad61ea646)"><g clip-path="url(#347b3f27ab)"><g clip-path="url(#7b98fa4d5e)"><path fill="#000000" d="M 98.457031 70.890625 L 181.316406 40.082031 L 238.410156 193.636719 L 155.550781 224.445312 Z M 98.457031 70.890625 " fill-opacity="1" fill-rule="nonzero"/></g></g></g><g clip-path="url(#f987e94469)"><g clip-path="url(#bbf06967d8)"><g clip-path="url(#49b62b26bb)"><path fill="#000000" d="M 558.015625 40.03125 L 649.753906 81.933594 L 585.289062 223.070312 L 493.550781 181.164062 Z M 558.015625 40.03125 " fill-opacity="1" fill-rule="nonzero"/></g></g></g><g clip-path="url(#b03fefbff5)"><g clip-path="url(#b1cb345aa6)"><path fill="#ffffff" d="M 79.710938 203.066406 L 670.941406 203.066406 L 670.941406 706.082031 L 79.710938 706.082031 Z M 79.710938 203.066406 " fill-opacity="1" fill-rule="nonzero"/></g></g><g clip-path="url(#24e3d1d3ba)"><g clip-path="url(#90922b4749)"><path stroke-linecap="butt" transform="matrix(0.749762, 0, 0, 0.749633, 79.712776, 203.067886)" fill="none" stroke-linejoin="miter" d="M 394.122565 -0.0019741 C 176.454562 -0.0019741 -0.00245153 150.055853 -0.00245153 335.162085 C -0.00245153 520.268317 176.454562 670.326144 394.122565 670.326144 C 611.795778 670.326144 788.247582 520.268317 788.247582 335.162085 C 788.247582 150.055853 611.795778 -0.0019741 394.122565 -0.0019741 " stroke="#000000" stroke-width="42" stroke-opacity="1" stroke-miterlimit="4"/></g></g><g clip-path="url(#09f102304c)"><path fill="#000000" d="M 375.289062 638.644531 C 433.28125 638.644531 480.292969 591.632812 480.292969 533.644531 L 270.292969 533.644531 C 270.292969 591.632812 317.300781 638.644531 375.289062 638.644531 Z M 375.289062 638.644531 " fill-opacity="1" fill-rule="nonzero"/></g><g clip-path="url(#34e9a6044e)"><g clip-path="url(#f5dfe99af2)"><g clip-path="url(#d99827850d)"><path fill="#000000" d="M 282.359375 361.554688 L 285.960938 478.347656 L 194.808594 481.15625 L 191.207031 364.367188 Z M 282.359375 361.554688 " fill-opacity="1" fill-rule="nonzero"/></g></g></g><g clip-path="url(#3da4dd15b6)"><g clip-path="url(#2e81dd3ba4)"><g clip-path="url(#3db3b4212c)"><path fill="#000000" d="M 569.257812 368.066406 L 562.570312 486.375 L 470.230469 481.15625 L 476.917969 362.847656 Z M 569.257812 368.066406 " fill-opacity="1" fill-rule="nonzero"/></g></g></g><g clip-path="url(#4460651cd8)"><g clip-path="url(#67f040a26c)"><path fill="#f4a2ad" d="M 321.671875 573.636719 L 429.132812 573.636719 L 429.132812 631.253906 L 321.671875 631.253906 Z M 321.671875 573.636719 " fill-opacity="1" fill-rule="nonzero"/></g></g></svg>