<svg xmlns="http://www.w3.org/2000/svg" xmlns:xlink="http://www.w3.org/1999/xlink" width="1000" zoomAndPan="magnify" viewBox="0 0 750 749.999995" height="1000" preserveAspectRatio="xMidYMid meet" version="1.0"><defs><clipPath id="37fafa4fc3"><path d="M 79.511719 95.820312 L 670.488281 95.820312 L 670.488281 686.792969 L 79.511719 686.792969 Z M 79.511719 95.820312 " clip-rule="nonzero"/></clipPath><clipPath id="fc0056e5a1"><path d="M 375 95.820312 C 211.804688 95.820312 79.511719 228.113281 79.511719 391.308594 C 79.511719 554.5 211.804688 686.792969 375 686.792969 C 538.195312 686.792969 670.488281 554.5 670.488281 391.308594 C 670.488281 228.113281 538.195312 95.820312 375 95.820312 " clip-rule="nonzero"/></clipPath><clipPath id="3c1cbbc297"><path d="M 79.511719 95.820312 L 670.511719 95.820312 L 670.511719 686.820312 L 79.511719 686.820312 Z M 79.511719 95.820312 " clip-rule="nonzero"/></clipPath><clipPath id="47619ad55e"><path d="M 375.011719 95.820312 C 211.8125 95.820312 79.511719 228.117188 79.511719 391.320312 C 79.511719 554.519531 211.8125 686.820312 375.011719 686.820312 C 538.210938 686.820312 670.511719 554.519531 670.511719 391.320312 C 670.511719 228.117188 538.210938 95.820312 375.011719 95.820312 " clip-rule="nonzero"/></clipPath><clipPath id="7d783afd3a"><path d="M 79.511719 213.179688 L 670.527344 213.179688 L 670.527344 716 L 79.511719 716 Z M 79.511719 213.179688 " clip-rule="nonzero"/></clipPath><clipPath id="226219fe99"><path d="M 375 213.179688 C 211.804688 213.179688 79.511719 325.683594 79.511719 464.460938 C 79.511719 603.242188 211.804688 715.746094 375 715.746094 C 538.195312 715.746094 670.488281 603.242188 670.488281 464.460938 C 670.488281 325.683594 538.195312 213.179688 375 213.179688 " clip-rule="nonzero"/></clipPath><clipPath id="908b150f7e"><path d="M 79.511719 213.179688 L 670.511719 213.179688 L 670.511719 715.679688 L 79.511719 715.679688 Z M 79.511719 213.179688 " clip-rule="nonzero"/></clipPath><clipPath id="8837ed93db"><path d="M 375.011719 213.179688 C 211.8125 213.179688 79.511719 325.667969 79.511719 464.429688 C 79.511719 603.191406 211.8125 715.679688 375.011719 715.679688 C 538.210938 715.679688 670.511719 603.191406 670.511719 464.429688 C 670.511719 325.667969 538.210938 213.179688 375.011719 213.179688 " clip-rule="nonzero"/></clipPath><clipPath id="6399f5ee57"><path d="M 270.023438 539.4375 L 480.023438 539.4375 L 480.023438 648.9375 L 270.023438 648.9375 Z M 270.023438 539.4375 " clip-rule="nonzero"/></clipPath><clipPath id="8880b9ad7c"><path d="M 321.382812 582.472656 L 428.808594 582.472656 L 428.808594 640 L 321.382812 640 Z M 321.382812 582.472656 " clip-rule="nonzero"/></clipPath><clipPath id="3b52ce4b3c"><path d="M 375 582.472656 C 345.386719 582.472656 321.382812 595.347656 321.382812 611.222656 C 321.382812 627.101562 345.386719 639.972656 375 639.972656 C 404.613281 639.972656 428.617188 627.101562 428.617188 611.222656 C 428.617188 595.347656 404.613281 582.472656 375 582.472656 " clip-rule="nonzero"/></clipPath><clipPath id="b326c98a88"><path d="M 161 349 L 320 349 L 320 495 L 161 495 Z M 161 349 " clip-rule="nonzero"/></clipPath><clipPath id="a907f84ec4"><path d="M 144.769531 376.960938 L 309.25 337.707031 L 342.25 475.992188 L 177.773438 515.242188 Z M 144.769531 376.960938 " clip-rule="nonzero"/></clipPath><clipPath id="def88505dd"><path d="M 163.289062 397.5 C 155.617188 421.351562 169.363281 439.5 183.128906 447.589844 L 263.570312 494.769531 L 312.710938 416.902344 C 320.359375 402.839844 321.417969 389.609375 315.941406 376.464844 C 308.363281 358.28125 289.273438 347.328125 269.519531 349.824219 C 257.40625 351.371094 246.796875 357.4375 239.660156 366.960938 C 237.738281 369.523438 236.128906 372.261719 234.835938 375.125 C 231.964844 372.898438 228.765625 371 225.296875 369.46875 C 213.203125 364.128906 199.429688 364.152344 187.484375 369.539062 C 176.175781 374.660156 167.359375 384.847656 163.289062 397.5 " clip-rule="nonzero"/></clipPath><clipPath id="7473646a88"><path d="M 442 356 L 595 356 L 595 495 L 442 495 Z M 442 356 " clip-rule="nonzero"/></clipPath><clipPath id="56f358ed0c"><path d="M 443.300781 347.363281 L 602.875 372.5625 L 581.691406 506.722656 L 422.113281 481.523438 Z M 443.300781 347.363281 " clip-rule="nonzero"/></clipPath><clipPath id="30ca30f759"><path d="M 452.183594 372.246094 C 436.722656 390.519531 442.257812 411.558594 451.472656 423.714844 L 505.355469 494.667969 L 577.105469 443.777344 C 588.980469 434.140625 594.734375 422.835938 594.679688 409.230469 C 594.605469 390.414062 581.730469 373.785156 563.371094 368.804688 C 552.109375 365.761719 540.53125 367.253906 530.757812 373.070312 C 528.128906 374.632812 525.710938 376.464844 523.527344 378.527344 C 521.800781 375.515625 519.667969 372.671875 517.160156 370.054688 C 508.417969 360.9375 496.246094 355.945312 483.734375 356.355469 C 471.878906 356.761719 460.382812 362.550781 452.183594 372.246094 " clip-rule="nonzero"/></clipPath><clipPath id="a760614d38"><path d="M 125 63 L 201 63 L 201 184 L 125 184 Z M 125 63 " clip-rule="nonzero"/></clipPath><clipPath id="f5a0de5ffe"><path d="M 114.140625 77.855469 L 181.355469 52.863281 L 225.09375 170.492188 L 157.875 195.484375 Z M 114.140625 77.855469 " clip-rule="nonzero"/></clipPath><clipPath id="7bc2e42684"><path d="M 199.96875 168.335938 L 193.101562 94.097656 C 192.128906 83.589844 186.320312 74.136719 177.386719 68.519531 C 168.457031 62.902344 157.417969 61.765625 147.527344 65.441406 C 137.636719 69.121094 130.019531 77.191406 126.925781 87.28125 C 123.832031 97.367188 125.613281 108.324219 131.742188 116.914062 L 175.046875 177.605469 C 178.660156 182.671875 185.222656 184.683594 191.054688 182.515625 C 196.890625 180.34375 200.542969 174.535156 199.96875 168.335938 " clip-rule="nonzero"/></clipPath><clipPath id="1207cb06ec"><path d="M 545 57 L 626 57 L 626 170 L 545 170 Z M 545 57 " clip-rule="nonzero"/></clipPath><clipPath id="a26e80cba7"><path d="M 568.921875 45.011719 L 639.492188 77.246094 L 590.261719 185.023438 L 519.695312 152.789062 Z M 568.921875 45.011719 " clip-rule="nonzero"/></clipPath><clipPath id="c851175c31"><path d="M 574.164062 164.320312 L 615.703125 119.171875 C 623.652344 110.535156 626.984375 98.609375 624.660156 87.101562 C 622.335938 75.59375 614.640625 65.894531 603.960938 61.019531 C 593.28125 56.140625 580.914062 56.671875 570.691406 62.449219 C 560.472656 68.230469 553.640625 78.554688 552.316406 90.21875 L 545.390625 151.175781 C 544.574219 158.332031 548.457031 165.195312 555.007812 168.1875 C 561.558594 171.179688 569.289062 169.617188 574.164062 164.320312 " clip-rule="nonzero"/></clipPath></defs><g clip-path="url(#37fafa4fc3)"><g clip-path="url(#fc0056e5a1)"><path fill="#38b6ff" d="M 79.511719 95.820312 L 670.488281 95.820312 L 670.488281 686.792969 L 79.511719 686.792969 Z M 79.511719 95.820312 " fill-opacity="1" fill-rule="nonzero"/></g></g><g clip-path="url(#3c1cbbc297)"><g clip-path="url(#47619ad55e)"><path stroke-linecap="butt" transform="matrix(0.750045, 0, 0, 0.750045, 79.511989, 95.818844)" fill="none" stroke-linejoin="miter" d="M 393.976209 0.00195771 C 176.390191 0.00195771 -0.000360545 176.387301 -0.000360545 393.978527 C -0.000360545 611.564546 176.390191 787.955097 393.976209 787.955097 C 611.562227 787.955097 787.952779 611.564546 787.952779 393.978527 C 787.952779 176.387301 611.562227 0.00195771 393.976209 0.00195771 " stroke="#000000" stroke-width="48" stroke-opacity="1" stroke-miterlimit="4"/></g></g><g clip-path="url(#7d783afd3a)"><g clip-path="url(#226219fe99)"><path fill="#ffffff" d="M 79.511719 213.179688 L 670.527344 213.179688 L 670.527344 716.011719 L 79.511719 716.011719 Z M 79.511719 213.179688 " fill-opacity="1" fill-rule="nonzero"/></g></g><g clip-path="url(#908b150f7e)"><g clip-path="url(#8837ed93db)"><path stroke-linecap="butt" transform="matrix(0.750045, 0, 0, 0.749913, 79.511989, 213.17957)" fill="none" stroke-linejoin="miter" d="M 393.976184 0.000156137 C 176.39018 0.000156137 -0.000360545 150.002015 -0.000360545 335.039209 C -0.000360545 520.076402 176.39018 670.078261 393.976184 670.078261 C 611.562188 670.078261 787.952728 520.076402 787.952728 335.039209 C 787.952728 150.002015 611.562188 0.000156137 393.976184 0.000156137 " stroke="#000000" stroke-width="48" stroke-opacity="1" stroke-miterlimit="4"/></g></g><g clip-path="url(#6399f5ee57)"><path fill="#000000" d="M 274.242188 539.453125 L 375.035156 539.453125 L 375.035156 539.4375 L 480.027344 539.4375 L 480.027344 543.648438 C 480.027344 572.722656 468.273438 599.042969 449.273438 618.09375 C 430.273438 637.148438 404.027344 648.933594 375.035156 648.933594 C 346.042969 648.933594 319.792969 637.148438 300.792969 618.09375 C 281.796875 599.042969 270.042969 572.722656 270.042969 543.648438 L 270.042969 539.453125 L 274.242188 539.453125 " fill-opacity="1" fill-rule="nonzero"/></g><g clip-path="url(#8880b9ad7c)"><g clip-path="url(#3b52ce4b3c)"><path fill="#f4a2ad" d="M 321.382812 582.472656 L 428.808594 582.472656 L 428.808594 640.070312 L 321.382812 640.070312 Z M 321.382812 582.472656 " fill-opacity="1" fill-rule="nonzero"/></g></g><g clip-path="url(#b326c98a88)"><g clip-path="url(#a907f84ec4)"><g clip-path="url(#def88505dd)"><path fill="#dd2222" d="M 151.90625 377.1875 L 307.855469 339.972656 L 340.421875 476.425781 L 184.472656 513.644531 Z M 151.90625 377.1875 " fill-opacity="1" fill-rule="nonzero"/></g></g></g><g clip-path="url(#7473646a88)"><g clip-path="url(#56f358ed0c)"><g clip-path="url(#30ca30f759)"><path fill="#dd2222" d="M 449.523438 350.160156 L 600.824219 374.054688 L 579.917969 506.441406 L 428.617188 482.550781 Z M 449.523438 350.160156 " fill-opacity="1" fill-rule="nonzero"/></g></g></g><g clip-path="url(#a760614d38)"><g clip-path="url(#f5a0de5ffe)"><g clip-path="url(#7bc2e42684)"><path fill="#000000" d="M 106.027344 80.871094 L 188.890625 50.0625 L 245.984375 203.617188 L 163.121094 234.425781 Z M 106.027344 80.871094 " fill-opacity="1" fill-rule="nonzero"/></g></g></g><g clip-path="url(#1207cb06ec)"><g clip-path="url(#a26e80cba7)"><g clip-path="url(#c851175c31)"><path fill="#000000" d="M 558.015625 40.03125 L 649.753906 81.933594 L 585.289062 223.070312 L 493.550781 181.164062 Z M 558.015625 40.03125 " fill-opacity="1" fill-rule="nonzero"/></g></g></g></svg>