<svg xmlns="http://www.w3.org/2000/svg" xmlns:xlink="http://www.w3.org/1999/xlink" width="1000" zoomAndPan="magnify" viewBox="0 0 750 749.999995" height="1000" preserveAspectRatio="xMidYMid meet" version="1.0"><defs><clipPath id="a65ba09ce9"><path d="M 79.511719 95.820312 L 670.488281 95.820312 L 670.488281 686.796875 L 79.511719 686.796875 Z M 79.511719 95.820312 " clip-rule="nonzero"/></clipPath><clipPath id="f440a503a4"><path d="M 375 95.820312 C 211.804688 95.820312 79.511719 228.113281 79.511719 391.308594 C 79.511719 554.5 211.804688 686.796875 375 686.796875 C 538.195312 686.796875 670.488281 554.5 670.488281 391.308594 C 670.488281 228.113281 538.195312 95.820312 375 95.820312 " clip-rule="nonzero"/></clipPath><clipPath id="385e766832"><path d="M 79.511719 95.820312 L 670.511719 95.820312 L 670.511719 686.820312 L 79.511719 686.820312 Z M 79.511719 95.820312 " clip-rule="nonzero"/></clipPath><clipPath id="e24704ebae"><path d="M 375.011719 95.820312 C 211.8125 95.820312 79.511719 228.117188 79.511719 391.320312 C 79.511719 554.519531 211.8125 686.820312 375.011719 686.820312 C 538.210938 686.820312 670.511719 554.519531 670.511719 391.320312 C 670.511719 228.117188 538.210938 95.820312 375.011719 95.820312 " clip-rule="nonzero"/></clipPath><clipPath id="cbab59e42e"><path d="M 79.511719 213.179688 L 670.527344 213.179688 L 670.527344 716 L 79.511719 716 Z M 79.511719 213.179688 " clip-rule="nonzero"/></clipPath><clipPath id="1a63d288a2"><path d="M 375 213.179688 C 211.804688 213.179688 79.511719 325.683594 79.511719 464.460938 C 79.511719 603.242188 211.804688 715.746094 375 715.746094 C 538.195312 715.746094 670.488281 603.242188 670.488281 464.460938 C 670.488281 325.683594 538.195312 213.179688 375 213.179688 " clip-rule="nonzero"/></clipPath><clipPath id="e7ef80bf7c"><path d="M 79.511719 213.179688 L 670.511719 213.179688 L 670.511719 715.679688 L 79.511719 715.679688 Z M 79.511719 213.179688 " clip-rule="nonzero"/></clipPath><clipPath id="4ac5cc0145"><path d="M 375.011719 213.179688 C 211.8125 213.179688 79.511719 325.667969 79.511719 464.429688 C 79.511719 603.191406 211.8125 715.679688 375.011719 715.679688 C 538.210938 715.679688 670.511719 603.191406 670.511719 464.429688 C 670.511719 325.667969 538.210938 213.179688 375.011719 213.179688 " clip-rule="nonzero"/></clipPath><clipPath id="42987c2ae4"><path d="M 97 90 L 217 90 L 217 168 L 97 168 Z M 97 90 " clip-rule="nonzero"/></clipPath><clipPath id="e2dafd781c"><path d="M 86.742188 144.464844 L 113.699219 78.015625 L 229.992188 125.195312 L 203.03125 191.648438 Z M 86.742188 144.464844 " clip-rule="nonzero"/></clipPath><clipPath id="87de6ba890"><path d="M 211.433594 142.269531 L 152.042969 97.199219 C 143.640625 90.820312 132.742188 88.71875 122.566406 91.515625 C 112.390625 94.308594 104.097656 101.683594 100.132812 111.460938 C 96.164062 121.238281 96.976562 132.304688 102.328125 141.402344 C 107.679688 150.496094 116.960938 156.578125 127.433594 157.859375 L 201.4375 166.910156 C 207.617188 167.664062 213.53125 164.183594 215.871094 158.417969 C 218.210938 152.652344 216.390625 146.03125 211.433594 142.269531 " clip-rule="nonzero"/></clipPath><clipPath id="4176707ef8"><path d="M 519 84 L 634 84 L 634 162 L 519 162 Z M 519 84 " clip-rule="nonzero"/></clipPath><clipPath id="cef86701e7"><path d="M 616.925781 72.300781 L 644.746094 144.71875 L 534.140625 187.210938 L 506.320312 114.789062 Z M 616.925781 72.300781 " clip-rule="nonzero"/></clipPath><clipPath id="654459d88e"><path d="M 537.140625 161.15625 L 598.410156 158.003906 C 610.132812 157.398438 620.859375 151.214844 627.257812 141.371094 C 633.652344 131.527344 634.949219 119.214844 630.738281 108.257812 C 626.527344 97.296875 617.324219 89.019531 605.980469 85.988281 C 594.636719 82.960938 582.53125 85.546875 573.417969 92.949219 L 525.792969 131.628906 C 520.203125 136.167969 518.171875 143.785156 520.753906 150.507812 C 523.335938 157.230469 529.949219 161.527344 537.140625 161.15625 " clip-rule="nonzero"/></clipPath><clipPath id="197186d3de"><path d="M 195 366 L 316 366 L 316 487 L 195 487 Z M 195 366 " clip-rule="nonzero"/></clipPath><clipPath id="00910d81c8"><path d="M 313.488281 364.988281 L 317.175781 484.535156 L 197.628906 488.222656 L 193.941406 368.675781 Z M 313.488281 364.988281 " clip-rule="nonzero"/></clipPath><clipPath id="a5fb367888"><path d="M 315.332031 424.761719 C 316.351562 457.773438 290.414062 485.359375 257.402344 486.378906 C 224.390625 487.398438 196.804688 461.460938 195.785156 428.449219 C 194.769531 395.4375 220.703125 367.851562 253.714844 366.832031 C 286.726562 365.8125 314.316406 391.75 315.332031 424.761719 " clip-rule="nonzero"/></clipPath><clipPath id="2989f49145"><path d="M 446 368 L 568 368 L 568 490 L 446 490 Z M 446 368 " clip-rule="nonzero"/></clipPath><clipPath id="026390ba15"><path d="M 570.59375 371.820312 L 563.761719 492.675781 L 442.90625 485.84375 L 449.738281 364.988281 Z M 570.59375 371.820312 " clip-rule="nonzero"/></clipPath><clipPath id="4e6626a702"><path d="M 567.179688 432.246094 C 565.292969 465.621094 536.707031 491.144531 503.335938 489.257812 C 469.960938 487.371094 444.4375 458.789062 446.324219 425.414062 C 448.207031 392.042969 476.792969 366.515625 510.164062 368.402344 C 543.539062 370.289062 569.066406 398.875 567.179688 432.246094 " clip-rule="nonzero"/></clipPath><clipPath id="112e6408e8"><path d="M 213 389 L 266 389 L 266 442 L 213 442 Z M 213 389 " clip-rule="nonzero"/></clipPath><clipPath id="c731594b24"><path d="M 265.042969 388.410156 L 266.65625 440.722656 L 214.34375 442.335938 L 212.730469 390.023438 Z M 265.042969 388.410156 " clip-rule="nonzero"/></clipPath><clipPath id="e17d5afa09"><path d="M 265.851562 414.566406 C 266.296875 429.011719 254.945312 441.082031 240.5 441.527344 C 226.054688 441.972656 213.984375 430.625 213.539062 416.179688 C 213.09375 401.734375 224.441406 389.660156 238.886719 389.214844 C 253.332031 388.769531 265.40625 400.121094 265.851562 414.566406 " clip-rule="nonzero"/></clipPath><clipPath id="31c81044a3"><path d="M 467 384 L 523 384 L 523 439 L 467 439 Z M 467 384 " clip-rule="nonzero"/></clipPath><clipPath id="ac760cbd33"><path d="M 521.628906 383.207031 L 523.3125 437.769531 L 468.75 439.453125 L 467.066406 384.890625 Z M 521.628906 383.207031 " clip-rule="nonzero"/></clipPath><clipPath id="d6d75b90c6"><path d="M 522.472656 410.488281 C 522.9375 425.554688 511.097656 438.144531 496.03125 438.609375 C 480.964844 439.074219 468.375 427.238281 467.910156 412.171875 C 467.445312 397.105469 479.28125 384.511719 494.347656 384.046875 C 509.414062 383.582031 522.007812 395.421875 522.472656 410.488281 " clip-rule="nonzero"/></clipPath><clipPath id="21cb8c5f7e"><path d="M 265 432 L 296 432 L 296 467 L 265 467 Z M 265 432 " clip-rule="nonzero"/></clipPath><clipPath id="685cc59329"><path d="M 302.023438 441.125 L 278.921875 471.835938 L 259.246094 457.039062 L 282.347656 426.324219 Z M 302.023438 441.125 " clip-rule="nonzero"/></clipPath><clipPath id="9aed1965d6"><path d="M 290.472656 456.480469 C 284.09375 464.960938 274.601562 468.585938 269.269531 464.578125 C 263.941406 460.566406 264.789062 450.441406 271.167969 441.960938 C 277.546875 433.480469 287.042969 429.855469 292.371094 433.863281 C 297.703125 437.875 296.851562 448 290.472656 456.480469 " clip-rule="nonzero"/></clipPath><clipPath id="9574b5afa9"><path d="M 520 428 L 553 428 L 553 465 L 520 465 Z M 520 428 " clip-rule="nonzero"/></clipPath><clipPath id="62300b193b"><path d="M 558.464844 438.183594 L 534.371094 470.214844 L 513.847656 454.78125 L 537.945312 422.746094 Z M 558.464844 438.183594 " clip-rule="nonzero"/></clipPath><clipPath id="fccbcdd9f4"><path d="M 546.417969 454.199219 C 539.765625 463.042969 529.863281 466.824219 524.304688 462.644531 C 518.742188 458.460938 519.628906 447.898438 526.28125 439.054688 C 532.9375 430.207031 542.835938 426.429688 548.398438 430.609375 C 553.957031 434.792969 553.070312 445.351562 546.417969 454.199219 " clip-rule="nonzero"/></clipPath><clipPath id="03b3d687bf"><path d="M 275 521 L 496 521 L 496 663 L 275 663 Z M 275 521 " clip-rule="nonzero"/></clipPath><clipPath id="eb634b9b3b"><path d="M 303.535156 495.125 L 522.019531 555.371094 L 491.746094 665.15625 L 273.265625 604.914062 Z M 303.535156 495.125 " clip-rule="nonzero"/></clipPath><clipPath id="4a55347ff1"><path d="M 275.992188 596.230469 C 296.003906 540.433594 355.636719 509.492188 412.777344 525.25 C 469.921875 541.003906 505.265625 598.136719 493.855469 656.304688 C 493.308594 659.085938 491.320312 661.363281 488.640625 662.28125 C 485.957031 663.199219 482.992188 662.617188 480.855469 660.753906 C 478.71875 658.890625 477.742188 656.03125 478.285156 653.25 C 488.097656 603.226562 457.703125 554.09375 408.5625 540.542969 C 359.417969 526.992188 308.136719 553.601562 290.925781 601.585938 C 289.96875 604.253906 287.660156 606.207031 284.871094 606.714844 C 282.082031 607.21875 279.238281 606.195312 277.40625 604.035156 C 275.574219 601.871094 275.035156 598.898438 275.992188 596.230469 " clip-rule="nonzero"/></clipPath><clipPath id="9191f8aff3"><path d="M 275 521 L 489 521 L 489 607 L 275 607 Z M 275 521 " clip-rule="nonzero"/></clipPath><clipPath id="2dd925108f"><path d="M 305.945312 486.386719 L 504.765625 541.210938 L 472.082031 659.734375 L 273.265625 604.914062 Z M 305.945312 486.386719 " clip-rule="nonzero"/></clipPath><clipPath id="29fa193668"><path d="M 275.992188 596.230469 C 291.949219 551.742188 333.84375 521.828125 381.105469 521.183594 C 428.363281 520.535156 471.0625 549.289062 488.230469 593.324219 C 489.261719 595.964844 488.804688 598.953125 487.03125 601.164062 C 485.261719 603.378906 482.441406 604.476562 479.640625 604.046875 C 476.839844 603.617188 474.480469 601.726562 473.449219 599.085938 C 458.683594 561.21875 421.964844 536.488281 381.320312 537.042969 C 340.679688 537.601562 304.648438 563.324219 290.925781 601.585938 C 289.96875 604.253906 287.660156 606.207031 284.871094 606.714844 C 282.082031 607.21875 279.238281 606.195312 277.40625 604.035156 C 275.574219 601.871094 275.035156 598.898438 275.992188 596.230469 " clip-rule="nonzero"/></clipPath></defs><g clip-path="url(#a65ba09ce9)"><g clip-path="url(#f440a503a4)"><path fill="#38b6ff" d="M 79.511719 95.820312 L 670.488281 95.820312 L 670.488281 686.796875 L 79.511719 686.796875 Z M 79.511719 95.820312 " fill-opacity="1" fill-rule="nonzero"/></g></g><g clip-path="url(#385e766832)"><g clip-path="url(#e24704ebae)"><path stroke-linecap="butt" transform="matrix(0.750045, 0, 0, 0.750045, 79.511989, 95.818962)" fill="none" stroke-linejoin="miter" d="M 393.976209 0.00180092 C 176.390191 0.00180092 -0.000360545 176.387144 -0.000360545 393.978371 C -0.000360545 611.564389 176.390191 787.95494 393.976209 787.95494 C 611.562227 787.95494 787.952779 611.564389 787.952779 393.978371 C 787.952779 176.387144 611.562227 0.00180092 393.976209 0.00180092 " stroke="#000000" stroke-width="48" stroke-opacity="1" stroke-miterlimit="4"/></g></g><g clip-path="url(#cbab59e42e)"><g clip-path="url(#1a63d288a2)"><path fill="#ffffff" d="M 79.511719 213.179688 L 670.527344 213.179688 L 670.527344 716.011719 L 79.511719 716.011719 Z M 79.511719 213.179688 " fill-opacity="1" fill-rule="nonzero"/></g></g><g clip-path="url(#e7ef80bf7c)"><g clip-path="url(#4ac5cc0145)"><path stroke-linecap="butt" transform="matrix(0.750045, 0, 0, 0.749913, 79.511989, 213.17957)" fill="none" stroke-linejoin="miter" d="M 393.976184 0.000156137 C 176.39018 0.000156137 -0.000360545 150.002015 -0.000360545 335.039209 C -0.000360545 520.076402 176.39018 670.078261 393.976184 670.078261 C 611.562188 670.078261 787.952728 520.076402 787.952728 335.039209 C 787.952728 150.002015 611.562188 0.000156137 393.976184 0.000156137 " stroke="#000000" stroke-width="48" stroke-opacity="1" stroke-miterlimit="4"/></g></g><g clip-path="url(#42987c2ae4)"><g clip-path="url(#e2dafd781c)"><g clip-path="url(#87de6ba890)"><path fill="#000000" d="M 83.488281 152.488281 L 116.722656 70.566406 L 268.53125 132.160156 L 235.292969 214.078125 Z M 83.488281 152.488281 " fill-opacity="1" fill-rule="nonzero"/></g></g></g><g clip-path="url(#4176707ef8)"><g clip-path="url(#cef86701e7)"><g clip-path="url(#654459d88e)"><path fill="#000000" d="M 612.625 61.105469 L 648.792969 155.253906 L 503.953125 210.894531 L 467.785156 116.75 Z M 612.625 61.105469 " fill-opacity="1" fill-rule="nonzero"/></g></g></g><g clip-path="url(#197186d3de)"><g clip-path="url(#00910d81c8)"><g clip-path="url(#a5fb367888)"><path fill="#000000" d="M 313.488281 364.988281 L 317.175781 484.535156 L 197.628906 488.222656 L 193.941406 368.675781 Z M 313.488281 364.988281 " fill-opacity="1" fill-rule="nonzero"/></g></g></g><g clip-path="url(#2989f49145)"><g clip-path="url(#026390ba15)"><g clip-path="url(#4e6626a702)"><path fill="#000000" d="M 570.59375 371.820312 L 563.761719 492.675781 L 442.90625 485.84375 L 449.738281 364.988281 Z M 570.59375 371.820312 " fill-opacity="1" fill-rule="nonzero"/></g></g></g><g clip-path="url(#112e6408e8)"><g clip-path="url(#c731594b24)"><g clip-path="url(#e17d5afa09)"><path fill="#ffffff" d="M 265.042969 388.410156 L 266.65625 440.722656 L 214.34375 442.335938 L 212.730469 390.023438 Z M 265.042969 388.410156 " fill-opacity="1" fill-rule="nonzero"/></g></g></g><g clip-path="url(#31c81044a3)"><g clip-path="url(#ac760cbd33)"><g clip-path="url(#d6d75b90c6)"><path fill="#ffffff" d="M 521.628906 383.207031 L 523.3125 437.769531 L 468.75 439.453125 L 467.066406 384.890625 Z M 521.628906 383.207031 " fill-opacity="1" fill-rule="nonzero"/></g></g></g><g clip-path="url(#21cb8c5f7e)"><g clip-path="url(#685cc59329)"><g clip-path="url(#9aed1965d6)"><path fill="#ffffff" d="M 302.023438 441.125 L 278.921875 471.835938 L 259.726562 457.398438 L 282.828125 426.6875 Z M 302.023438 441.125 " fill-opacity="1" fill-rule="nonzero"/></g></g></g><g clip-path="url(#9574b5afa9)"><g clip-path="url(#62300b193b)"><g clip-path="url(#fccbcdd9f4)"><path fill="#ffffff" d="M 558.464844 438.183594 L 534.371094 470.214844 L 514.351562 455.15625 L 538.445312 423.125 Z M 558.464844 438.183594 " fill-opacity="1" fill-rule="nonzero"/></g></g></g><g clip-path="url(#03b3d687bf)"><g clip-path="url(#eb634b9b3b)"><g clip-path="url(#4a55347ff1)"><path fill="#ffffff" d="M 303.535156 495.125 L 522.019531 555.371094 L 491.894531 664.609375 L 273.414062 604.367188 Z M 303.535156 495.125 " fill-opacity="1" fill-rule="nonzero"/></g></g></g><g clip-path="url(#9191f8aff3)"><g clip-path="url(#2dd925108f)"><g clip-path="url(#29fa193668)"><path fill="#000000" d="M 303.535156 495.125 L 522.019531 555.371094 L 491.894531 664.609375 L 273.414062 604.367188 Z M 303.535156 495.125 " fill-opacity="1" fill-rule="nonzero"/></g></g></g></svg>