<svg xmlns="http://www.w3.org/2000/svg" height="20" viewBox="0 -960 960 960" width="20"><path d="M180-107q-28.725 0-50.863-22.137Q107-151.275 107-180v-600q0-28.725 22.137-50.862Q151.275-853 180-853h600q28.725 0 50.862 22.138Q853-808.725 853-780v600q0 28.725-22.138 50.863Q808.725-107 780-107H180Zm47-162h507L579-476 446-303l-94-128-125 162Zm113-295q24.417 0 40.708-15.792Q397-595.583 397-620q0-24.417-16.292-40.708Q364.417-677 340-677q-24.417 0-40.208 16.292Q284-644.417 284-620q0 24.417 15.792 40.208Q315.583-564 340-564Z"/></svg>